<svg viewBox="0 0 400 300" xmlns="http://www.w3.org/2000/svg">
  <rect width="400" height="300" fill="#5C1626"/>
  <g stroke="#C08497" stroke-width="1.4" fill="none" stroke-linecap="round" stroke-linejoin="round">
    <!-- cuerpo del horno de barro -->
    <path d="M110 250 V180 Q110 100 200 96 Q290 100 290 180 V250 Z"/>
    <path d="M96 250 H304"/>
    <!-- boca del horno -->
    <ellipse cx="200" cy="222" rx="46" ry="34"/>
    <ellipse cx="200" cy="222" rx="34" ry="24" opacity="0.6"/>
    <!-- llamas simples -->
    <path d="M180 226 q6 -18 0 -26 q10 8 8 22 M200 230 q6 -22 0 -32 q12 10 8 28 M220 226 q6 -18 0 -26 q10 8 8 22"/>
    <!-- chimenea -->
    <path d="M170 96 V60 M182 96 V54"/>
    <path d="M160 54 h34 v10 h-34 z"/>
  </g>
</svg>
